<?xml version="1.0" standalone="no"?>
<svg xmlns="http://www.w3.org/2000/svg" width="24" height="24"><rect width="24" height="24" opacity="0"></rect><g><path d="M8.26 9.6Q8.57 9.6 8.78 9.38Q9 9.17 9 8.86Q9 8.54 8.78 8.33Q8.57 8.11 8.26 8.11L7.18 8.11Q6.86 8.11 6.65 8.33Q6.43 8.54 6.43 8.86Q6.43 9.17 6.65 9.38Q6.86 9.6 7.18 9.6L8.26 9.6ZM12.6 9.6Q12.91 9.6 13.13 9.38Q13.34 9.17 13.34 8.86Q13.34 8.54 13.13 8.33Q12.91 8.11 12.6 8.11L11.52 8.11Q11.21 8.11 10.99 8.33Q10.78 8.54 10.78 8.86Q10.78 9.17 10.99 9.38Q11.21 9.6 11.52 9.6L12.6 9.6ZM16.94 9.6Q17.26 9.6 17.47 9.38Q17.69 9.17 17.69 8.86Q17.69 8.54 17.47 8.33Q17.26 8.11 16.94 8.11L15.86 8.11Q15.55 8.11 15.34 8.33Q15.12 8.54 15.12 8.86Q15.12 9.17 15.34 9.38Q15.55 9.6 15.86 9.6L16.94 9.6ZM8.26 12.89Q8.57 12.89 8.78 12.67Q9 12.46 9 12.14Q9 11.83 8.78 11.62Q8.57 11.4 8.26 11.4L7.18 11.4Q6.86 11.4 6.65 11.62Q6.43 11.83 6.43 12.14Q6.43 12.46 6.65 12.67Q6.86 12.89 7.18 12.89L8.26 12.89ZM12.6 12.89Q12.91 12.89 13.13 12.67Q13.34 12.46 13.34 12.14Q13.34 11.83 13.13 11.62Q12.91 11.4 12.6 11.4L11.52 11.4Q11.21 11.4 10.99 11.62Q10.78 11.83 10.78 12.14Q10.78 12.46 10.99 12.67Q11.21 12.89 11.52 12.89L12.6 12.89ZM16.94 12.89Q17.26 12.89 17.47 12.67Q17.69 12.46 17.69 12.14Q17.69 11.83 17.47 11.62Q17.26 11.4 16.94 11.4L15.86 11.4Q15.55 11.4 15.34 11.62Q15.12 11.83 15.12 12.14Q15.12 12.46 15.34 12.67Q15.55 12.89 15.86 12.89L16.94 12.89ZM16.94 16.15Q17.26 16.15 17.47 15.94Q17.69 15.72 17.69 15.41Q17.69 15.1 17.47 14.88Q17.26 14.66 16.94 14.66L7.03 14.66Q6.72 14.66 6.5 14.88Q6.29 15.1 6.29 15.41Q6.29 15.72 6.5 15.94Q6.72 16.15 7.03 16.15L16.94 16.15ZM19.01 3.5Q19.63 3.5 20.06 3.94Q20.5 4.37 20.5 4.99L20.5 19.01Q20.5 19.61 20.06 20.05Q19.63 20.5 19.01 20.5L4.99 20.5Q4.39 20.5 3.95 20.05Q3.5 19.61 3.5 19.01L3.5 4.99Q3.5 4.37 3.95 3.94Q4.39 3.5 4.99 3.5L19.01 3.5ZM4.99 1.99Q4.18 1.99 3.49 2.4Q2.81 2.81 2.4 3.49Q1.99 4.18 1.99 4.99L1.99 19.01Q1.99 19.82 2.4 20.51Q2.81 21.19 3.49 21.6Q4.18 22.01 4.99 22.01L19.01 22.01Q19.82 22.01 20.51 21.6Q21.19 21.19 21.6 20.51Q22.01 19.82 22.01 19.01L22.01 4.99Q22.01 4.18 21.6 3.49Q21.19 2.81 20.51 2.4Q19.82 1.99 19.01 1.99L4.99 1.99Z" fill="rgba(0,0,0,0.9019607843137255)"></path></g></svg>